General
Complete name                    : 11-05-10_Atlanta@Chicago\Bulls_vs_Hawks-1.mp4
Format                           : MPEG-4
Format profile                   : Base Media / Version 2
Codec ID                         : mp42
File size                        : 348 MiB
Duration                         : 23mn 14s
Overall bit rate                 : 2 092 Kbps
Encoded date                     : UTC 2011-05-11 03:25:19
Tagged date                      : UTC 2011-05-11 03:25:19

Video
ID                               : 201
Format                           : AVC
Format/Info                      : Advanced Video Codec
Format profile                   : High@L4.1
Format settings, CABAC           : Yes
Format settings, ReFrames        : 4 frames
Codec ID                         : avc1
Codec ID/Info                    : Advanced Video Coding
Duration                         : 23mn 14s
Bit rate mode                    : Variable
Bit rate                         : 1 992 Kbps
Maximum bit rate                 : 4 911 Kbps
Width                            : 1 280 pixels
Height                           : 720 pixels
Display aspect ratio             : 16:9
Frame rate mode                  : Constant
Frame rate                       : 29.970 fps
Color space                      : YUV
Chroma subsampling               : 4:2:0
Bit depth                        : 8 bits
Scan type                        : Progressive
Bits/(Pixel*Frame)               : 0.072
Stream size                      : 331 MiB (95%)
Writing library                  : x264 core 115 r1947 b5a8ad7
Encoding settings                : cabac=1 / ref=1 / deblock=1:0:0 / analyse=0x3:0x113 / me=umh / subme=7 / psy=1 / psy_rd=1.00:0.00 / mixed_ref=0 / me_range=16 / chroma_me=1 / trellis=1 / 8x8dct=1 / cqm=0 / deadzone=21,11 / fast_pskip=1 / chroma_qp_offset=4 / threads=6 / sliced_threads=0 / nr=0 / decimate=1 / interlaced=0 / bluray_compat=0 / constrained_intra=0 / bframes=3 / b_pyramid=2 / b_adapt=2 / b_bias=0 / direct=1 / weightb=1 / open_gop=0 / weightp=2 / keyint=600 / keyint_min=30 / scenecut=40 / intra_refresh=0 / rc_lookahead=10 / rc=crf / mbtree=1 / crf=23.0 / qcomp=0.30 / qpmin=0 / qpmax=69 / qpstep=49 / vbv_maxrate=50000 / vbv_bufsize=50000 / crf_max=0.0 / nal_hrd=none / ip_ratio=2.00 / aq=1:1.00
Language                         : English
Encoded date                     : UTC 2011-05-11 03:25:19
Tagged date                      : UTC 2011-05-11 03:25:32

Audio
ID                               : 101
Format                           : AAC
Format/Info                      : Advanced Audio Codec
Format profile                   : LC
Codec ID                         : 40
Duration                         : 23mn 9s
Bit rate mode                    : Variable
Bit rate                         : 96.0 Kbps
Maximum bit rate                 : 102 Kbps
Channel(s)                       : 2 channels
Channel positions                : Front: L R
Sampling rate                    : 48.0 KHz
Compression mode                 : Lossy
Stream size                      : 15.9 MiB (5%)
Language                         : English
Encoded date                     : UTC 2011-05-11 03:25:30
Tagged date                      : UTC 2011-05-11 03:25:32


General
Complete name                    : 11-05-10_Atlanta@Chicago\Bulls_vs_Hawks-2.mp4
Format                           : MPEG-4
Format profile                   : Base Media / Version 2
Codec ID                         : mp42
File size                        : 431 MiB
Duration                         : 31mn 31s
Overall bit rate                 : 1 910 Kbps
Encoded date                     : UTC 2011-05-11 03:25:58
Tagged date                      : UTC 2011-05-11 03:25:58

Video
ID                               : 201
Format                           : AVC
Format/Info                      : Advanced Video Codec
Format profile                   : High@L4.1
Format settings, CABAC           : Yes
Format settings, ReFrames        : 4 frames
Codec ID                         : avc1
Codec ID/Info                    : Advanced Video Coding
Duration                         : 31mn 31s
Bit rate mode                    : Variable
Bit rate                         : 1 810 Kbps
Maximum bit rate                 : 4 091 Kbps
Width                            : 1 280 pixels
Height                           : 720 pixels
Display aspect ratio             : 16:9
Frame rate mode                  : Constant
Frame rate                       : 29.970 fps
Color space                      : YUV
Chroma subsampling               : 4:2:0
Bit depth                        : 8 bits
Scan type                        : Progressive
Bits/(Pixel*Frame)               : 0.066
Stream size                      : 408 MiB (95%)
Writing library                  : x264 core 115 r1947 b5a8ad7
Encoding settings                : cabac=1 / ref=1 / deblock=1:0:0 / analyse=0x3:0x113 / me=umh / subme=7 / psy=1 / psy_rd=1.00:0.00 / mixed_ref=0 / me_range=16 / chroma_me=1 / trellis=1 / 8x8dct=1 / cqm=0 / deadzone=21,11 / fast_pskip=1 / chroma_qp_offset=4 / threads=6 / sliced_threads=0 / nr=0 / decimate=1 / interlaced=0 / bluray_compat=0 / constrained_intra=0 / bframes=3 / b_pyramid=2 / b_adapt=2 / b_bias=0 / direct=1 / weightb=1 / open_gop=0 / weightp=2 / keyint=600 / keyint_min=30 / scenecut=40 / intra_refresh=0 / rc_lookahead=10 / rc=crf / mbtree=1 / crf=23.0 / qcomp=0.30 / qpmin=0 / qpmax=69 / qpstep=49 / vbv_maxrate=50000 / vbv_bufsize=50000 / crf_max=0.0 / nal_hrd=none / ip_ratio=2.00 / aq=1:1.00
Language                         : English
Encoded date                     : UTC 2011-05-11 03:25:58
Tagged date                      : UTC 2011-05-11 03:26:15

Audio
ID                               : 101
Format                           : AAC
Format/Info                      : Advanced Audio Codec
Format profile                   : LC
Codec ID                         : 40
Duration                         : 31mn 26s
Bit rate mode                    : Variable
Bit rate                         : 96.0 Kbps
Maximum bit rate                 : 103 Kbps
Channel(s)                       : 2 channels
Channel positions                : Front: L R
Sampling rate                    : 48.0 KHz
Compression mode                 : Lossy
Stream size                      : 21.6 MiB (5%)
Language                         : English
Encoded date                     : UTC 2011-05-11 03:26:13
Tagged date                      : UTC 2011-05-11 03:26:15


General
Complete name                    : 11-05-10_Atlanta@Chicago\Bulls_vs_Hawks-3.mp4
Format                           : MPEG-4
Format profile                   : Base Media / Version 2
Codec ID                         : mp42
File size                        : 369 MiB
Duration                         : 25mn 11s
Overall bit rate                 : 2 047 Kbps
Encoded date                     : UTC 2011-05-11 03:26:56
Tagged date                      : UTC 2011-05-11 03:26:56

Video
ID                               : 201
Format                           : AVC
Format/Info                      : Advanced Video Codec
Format profile                   : High@L4.1
Format settings, CABAC           : Yes
Format settings, ReFrames        : 4 frames
Codec ID                         : avc1
Codec ID/Info                    : Advanced Video Coding
Duration                         : 25mn 11s
Bit rate mode                    : Variable
Bit rate                         : 1 947 Kbps
Maximum bit rate                 : 3 923 Kbps
Width                            : 1 280 pixels
Height                           : 720 pixels
Display aspect ratio             : 16:9
Frame rate mode                  : Constant
Frame rate                       : 29.970 fps
Color space                      : YUV
Chroma subsampling               : 4:2:0
Bit depth                        : 8 bits
Scan type                        : Progressive
Bits/(Pixel*Frame)               : 0.070
Stream size                      : 351 MiB (95%)
Writing library                  : x264 core 115 r1947 b5a8ad7
Encoding settings                : cabac=1 / ref=1 / deblock=1:0:0 / analyse=0x3:0x113 / me=umh / subme=7 / psy=1 / psy_rd=1.00:0.00 / mixed_ref=0 / me_range=16 / chroma_me=1 / trellis=1 / 8x8dct=1 / cqm=0 / deadzone=21,11 / fast_pskip=1 / chroma_qp_offset=4 / threads=6 / sliced_threads=0 / nr=0 / decimate=1 / interlaced=0 / bluray_compat=0 / constrained_intra=0 / bframes=3 / b_pyramid=2 / b_adapt=2 / b_bias=0 / direct=1 / weightb=1 / open_gop=0 / weightp=2 / keyint=600 / keyint_min=30 / scenecut=40 / intra_refresh=0 / rc_lookahead=10 / rc=crf / mbtree=1 / crf=23.0 / qcomp=0.30 / qpmin=0 / qpmax=69 / qpstep=49 / vbv_maxrate=50000 / vbv_bufsize=50000 / crf_max=0.0 / nal_hrd=none / ip_ratio=2.00 / aq=1:1.00
Language                         : English
Encoded date                     : UTC 2011-05-11 03:26:56
Tagged date                      : UTC 2011-05-11 03:27:04

Audio
ID                               : 101
Format                           : AAC
Format/Info                      : Advanced Audio Codec
Format profile                   : LC
Codec ID                         : 40
Duration                         : 25mn 5s
Bit rate mode                    : Variable
Bit rate                         : 96.0 Kbps
Maximum bit rate                 : 102 Kbps
Channel(s)                       : 2 channels
Channel positions                : Front: L R
Sampling rate                    : 48.0 KHz
Compression mode                 : Lossy
Stream size                      : 17.2 MiB (5%)
Language                         : English
Encoded date                     : UTC 2011-05-11 03:27:03
Tagged date                      : UTC 2011-05-11 03:27:04


General
Complete name                    : 11-05-10_Atlanta@Chicago\Bulls_vs_Hawks-4.mp4
Format                           : MPEG-4
Format profile                   : Base Media / Version 2
Codec ID                         : mp42
File size                        : 374 MiB
Duration                         : 25mn 11s
Overall bit rate                 : 2 073 Kbps
Encoded date                     : UTC 2011-05-11 03:27:41
Tagged date                      : UTC 2011-05-11 03:27:41

Video
ID                               : 201
Format                           : AVC
Format/Info                      : Advanced Video Codec
Format profile                   : High@L4.1
Format settings, CABAC           : Yes
Format settings, ReFrames        : 4 frames
Codec ID                         : avc1
Codec ID/Info                    : Advanced Video Coding
Duration                         : 25mn 11s
Bit rate mode                    : Variable
Bit rate                         : 1 973 Kbps
Maximum bit rate                 : 3 931 Kbps
Width                            : 1 280 pixels
Height                           : 720 pixels
Display aspect ratio             : 16:9
Frame rate mode                  : Constant
Frame rate                       : 29.970 fps
Color space                      : YUV
Chroma subsampling               : 4:2:0
Bit depth                        : 8 bits
Scan type                        : Progressive
Bits/(Pixel*Frame)               : 0.071
Stream size                      : 356 MiB (95%)
Writing library                  : x264 core 115 r1947 b5a8ad7
Encoding settings                : cabac=1 / ref=1 / deblock=1:0:0 / analyse=0x3:0x113 / me=umh / subme=7 / psy=1 / psy_rd=1.00:0.00 / mixed_ref=0 / me_range=16 / chroma_me=1 / trellis=1 / 8x8dct=1 / cqm=0 / deadzone=21,11 / fast_pskip=1 / chroma_qp_offset=4 / threads=6 / sliced_threads=0 / nr=0 / decimate=1 / interlaced=0 / bluray_compat=0 / constrained_intra=0 / bframes=3 / b_pyramid=2 / b_adapt=2 / b_bias=0 / direct=1 / weightb=1 / open_gop=0 / weightp=2 / keyint=600 / keyint_min=30 / scenecut=40 / intra_refresh=0 / rc_lookahead=10 / rc=crf / mbtree=1 / crf=23.0 / qcomp=0.30 / qpmin=0 / qpmax=69 / qpstep=49 / vbv_maxrate=50000 / vbv_bufsize=50000 / crf_max=0.0 / nal_hrd=none / ip_ratio=2.00 / aq=1:1.00
Language                         : English
Encoded date                     : UTC 2011-05-11 03:27:41
Tagged date                      : UTC 2011-05-11 03:27:50

Audio
ID                               : 101
Format                           : AAC
Format/Info                      : Advanced Audio Codec
Format profile                   : LC
Codec ID                         : 40
Duration                         : 25mn 6s
Bit rate mode                    : Variable
Bit rate                         : 96.0 Kbps
Maximum bit rate                 : 101 Kbps
Channel(s)                       : 2 channels
Channel positions                : Front: L R
Sampling rate                    : 48.0 KHz
Compression mode                 : Lossy
Stream size                      : 17.2 MiB (5%)
Language                         : English
Encoded date                     : UTC 2011-05-11 03:27:49
Tagged date                      : UTC 2011-05-11 03:27:50